<?xml version="1.0" standalone="no"?>
<!DOCTYPE svg PUBLIC "-//W3C//DTD SVG 20010904//EN"
 "http://www.w3.org/TR/2001/REC-SVG-20010904/DTD/svg10.dtd">
<svg version="1.0" xmlns="http://www.w3.org/2000/svg"
 width="700.000000pt" height="700.000000pt" viewBox="0 0 700.000000 700.000000"
 preserveAspectRatio="xMidYMid meet">
<metadata>
Created by potrace 1.14, written by Peter Selinger 2001-2017
</metadata>
<g transform="translate(0.000000,700.000000) scale(0.100000,-0.100000)"
fill="#000000" stroke="none">
<path d="M3278 6996 c-1 -2 -43 -7 -92 -10 -49 -4 -92 -9 -95 -10 -3 -2 -35
-7 -70 -10 -35 -4 -85 -11 -110 -16 -25 -5 -57 -12 -71 -14 -424 -77 -908
-274 -1275 -519 -70 -47 -298 -217 -305 -228 -3 -4 -23 -22 -45 -39 -56 -44
-214 -199 -312 -306 -304 -331 -562 -768 -715 -1213 -35 -103 -100 -337 -112
-401 -12 -68 -28 -158 -32 -180 -3 -14 -7 -45 -10 -70 -3 -25 -7 -56 -9 -70
-27 -152 -26 -663 0 -821 2 -13 6 -46 9 -74 33 -285 148 -683 285 -976 19 -41
28 -75 25 -90 -3 -13 -7 -35 -10 -49 -3 -14 -23 -108 -44 -210 -21 -102 -41
-196 -44 -210 -13 -69 -190 -937 -226 -1109 -26 -124 -22 -186 18 -251 51 -84
167 -136 258 -116 16 4 41 9 55 11 15 3 71 14 125 25 55 12 241 50 414 86 173
35 326 67 340 70 14 3 36 7 50 10 14 3 32 7 40 9 8 2 29 7 45 10 33 5 158 31
191 38 12 3 39 8 60 11 22 4 47 9 57 12 11 3 29 7 40 9 12 2 54 10 92 18 171
38 168 38 222 12 282 -135 662 -247 982 -291 25 -3 57 -7 70 -10 171 -26 667
-25 851 2 631 94 1115 283 1602 626 202 142 418 335 573 512 33 38 67 77 76
86 37 39 182 235 243 329 317 483 512 1045 564 1621 13 153 4 691 -13 720 -1
3 -6 30 -9 61 -4 31 -8 65 -10 75 -2 11 -11 60 -21 109 -95 507 -340 1054
-654 1460 -17 22 -34 45 -38 50 -104 136 -334 373 -488 500 -33 28 -62 53 -65
56 -14 16 -231 172 -299 214 -276 172 -507 281 -794 377 -83 27 -159 51 -167
53 -8 2 -42 10 -75 19 -143 37 -244 54 -525 92 -47 6 -546 15 -552 10z m527
-510 c22 -3 74 -11 115 -17 893 -129 1676 -643 2142 -1409 202 -332 353 -748
404 -1110 4 -30 8 -62 10 -70 25 -170 26 -591 0 -750 -2 -14 -7 -52 -11 -85
-4 -33 -9 -62 -10 -65 -2 -3 -6 -25 -10 -50 -11 -73 -71 -299 -109 -407 -66
-189 -171 -416 -253 -545 -12 -21 -23 -40 -23 -43 0 -3 -5 -11 -10 -18 -6 -7
-35 -50 -66 -97 -171 -257 -375 -474 -677 -716 -29 -24 -249 -168 -297 -196
-187 -107 -402 -203 -585 -261 -108 -34 -286 -80 -355 -92 -19 -3 -60 -10 -91
-16 -145 -25 -275 -34 -494 -34 -167 1 -360 11 -375 20 -3 2 -30 6 -60 10 -30
4 -77 11 -105 17 -27 5 -61 11 -75 14 -165 31 -439 124 -645 219 -153 71 -162
74 -225 71 -36 -2 -231 -38 -435 -80 -356 -74 -492 -102 -545 -112 -14 -3 -32
-7 -40 -9 -8 -2 -31 -7 -50 -10 -19 -3 -107 -21 -195 -40 -88 -18 -161 -33
-161 -32 -1 1 13 76 32 167 19 91 37 179 40 195 2 17 7 37 9 45 2 8 6 26 9 40
2 14 12 61 21 105 9 44 19 89 21 100 2 11 17 85 33 165 17 80 32 156 35 170 2
14 23 115 46 225 30 145 41 214 37 250 -4 32 -27 95 -65 176 -107 226 -201
508 -236 709 -3 19 -8 46 -11 60 -45 214 -54 688 -19 915 20 129 58 319 73
370 5 17 21 70 35 118 15 49 41 125 58 170 18 45 33 84 33 87 10 38 126 273
181 364 30 49 54 91 54 92 0 6 111 165 159 229 134 177 362 407 531 536 52 39
66 50 83 64 30 26 221 147 302 192 309 173 654 293 990 344 39 6 81 12 95 15
14 2 61 7 105 10 44 4 82 8 84 10 6 5 452 -4 496 -10z"/>
</g>
</svg>
